<svg width="294" height="239" viewBox="0 0 294 239" fill="none" xmlns="http://www.w3.org/2000/svg">
<rect x="29" y="52" width="224" height="154" fill="#616161"/>
<path d="M0 54C0 44.187 3.87186 34.7759 10.7638 27.837C17.6558 20.8982 27.0033 17 36.75 17H257.25C266.997 17 276.344 20.8982 283.236 27.837C290.128 34.7759 294 44.187 294 54V202C294 211.813 290.128 221.224 283.236 228.163C276.344 235.102 266.997 239 257.25 239H36.75C27.0033 239 17.6558 235.102 10.7638 228.163C3.87186 221.224 0 211.813 0 202V54ZM95.256 134.808C107.126 134.808 114.642 141.801 114.733 151.458C114.88 161.392 106.887 168.46 94.7782 168.46C83.79 168.386 75.7234 162.447 75.1538 154.473H55.125C55.6762 171.382 69.6596 185.702 94.6864 185.702C117.471 185.702 136.673 173.492 136.434 152.439C136.196 134.808 122.708 126.908 112.694 125.946V124.8C120.779 123.505 133.366 115.05 133.053 99.362C132.815 82.601 118.353 70.317 95.3295 70.4095C71.2583 70.502 57.7894 83.9885 57.2198 101.305H77.4874C77.8916 94.071 84.525 87.411 94.6864 87.411C104.462 87.411 111.738 93.516 111.738 102.451C111.812 111.313 104.701 117.899 94.6864 117.899H83.0734V134.808H95.256ZM149.315 183.5H189.538C222.797 183.5 238.875 163.021 238.875 127.723C238.875 92.6835 223.054 72.5185 189.538 72.5185H149.315V183.5Z" fill="#616161"/>
<path d="M185.826 71H170.634V144.08H185.826C205.914 144.08 215.004 132.074 215.004 107.72C215.004 83.348 205.824 71 185.826 71Z" fill="white"/>
<path d="M3 36C3 26.4522 6.79285 17.2955 13.5442 10.5442C20.2955 3.79284 29.4522 0 39 0H255C264.548 0 273.705 3.79284 280.456 10.5442C287.207 17.2955 291 26.4522 291 36V180C291 189.548 287.207 198.705 280.456 205.456C273.705 212.207 264.548 216 255 216H39C29.4522 216 20.2955 212.207 13.5442 205.456C6.79285 198.705 3 189.548 3 180V36ZM96.312 114.624C107.94 114.624 115.302 121.428 115.392 130.824C115.536 140.49 107.706 147.366 95.844 147.366C85.08 147.294 77.178 141.516 76.62 133.758H57C57.54 150.21 71.238 164.142 95.754 164.142C118.074 164.142 136.884 152.262 136.65 131.778C136.416 114.624 123.204 106.938 113.394 106.002V104.886C121.314 103.626 133.644 95.4 133.338 80.136C133.104 63.828 118.938 51.876 96.384 51.966C72.804 52.056 59.61 65.178 59.052 82.026H78.906C79.302 74.988 85.8 68.508 95.754 68.508C105.33 68.508 112.458 74.448 112.458 83.142C112.53 91.764 105.564 98.172 95.754 98.172H84.378V114.624H96.312ZM149.268 162H188.67C221.25 162 237 142.074 237 107.73C237 73.638 221.502 54.018 188.67 54.018H149.268V162Z" fill="white"/>
</svg>
