<svg width="274" height="273" viewBox="0 0 274 273" fill="none" xmlns="http://www.w3.org/2000/svg">
<g filter="url(#filter0_d_2_12)">
<path d="M109.294 190.75C155.455 238.144 225.897 255.75 258 256.25L258 185.75C246.855 184.75 223.842 187.512 186.641 163.75C146.72 138.25 137.072 111.083 131.25 94.25L186.641 94.25L95.8205 3.25L4.99999 94.25L58.3945 94.25C58.3945 106.25 68.8738 149.25 109.294 190.75Z" fill="white"/>
<path d="M109.294 190.75C155.455 238.144 225.897 255.75 258 256.25L258 185.75C246.855 184.75 223.842 187.512 186.641 163.75C146.72 138.25 137.072 111.083 131.25 94.25L186.641 94.25L95.8205 3.25L4.99999 94.25L58.3945 94.25C58.3945 106.25 68.8738 149.25 109.294 190.75Z" stroke="black" stroke-width="4"/>
</g>
<defs>
<filter id="filter0_d_2_12" x="0.178284" y="0.418762" width="273.822" height="271.863" filterUnits="userSpaceOnUse" color-interpolation-filters="sRGB">
<feFlood flood-opacity="0" result="BackgroundImageFix"/>
<feColorMatrix in="SourceAlpha" type="matrix" values="0 0 0 0 0 0 0 0 0 0 0 0 0 0 0 0 0 0 127 0" result="hardAlpha"/>
<feOffset dx="10" dy="10"/>
<feGaussianBlur stdDeviation="2"/>
<feComposite in2="hardAlpha" operator="out"/>
<feColorMatrix type="matrix" values="0 0 0 0 0 0 0 0 0 0 0 0 0 0 0 0 0 0 0.25 0"/>
<feBlend mode="normal" in2="BackgroundImageFix" result="effect1_dropShadow_2_12"/>
<feBlend mode="normal" in="SourceGraphic" in2="effect1_dropShadow_2_12" result="shape"/>
</filter>
</defs>
</svg>
