<svg width="23" height="23" viewBox="0 0 23 23" fill="none" xmlns="http://www.w3.org/2000/svg">
<path fill-rule="evenodd" clip-rule="evenodd" d="M7.18946 4.33187C8.08837 2.53418 9.51517 1.04153 11.3883 1.04153C12.7135 1.04153 13.8241 1.80309 14.6537 2.84553C15.3918 3.77305 15.9765 4.99978 16.3839 6.39251C16.853 6.5298 17.3 6.68625 17.7211 6.86028C19.4379 7.56987 20.8934 8.64634 21.4747 10.0773C21.6826 10.589 21.4363 11.1723 20.9246 11.3802C20.4129 11.588 19.8296 11.3417 19.6218 10.83C19.3366 10.1281 18.4731 9.33518 16.9571 8.70864C15.4796 8.09796 13.5389 7.71495 11.3883 7.71495C10.1922 7.71495 9.06281 7.83337 8.04272 8.04276C7.83334 9.06284 7.71492 10.1922 7.71492 11.3884C7.71492 12.5845 7.83334 13.7139 8.04272 14.734C9.06281 14.9434 10.1922 15.0618 11.3883 15.0618C12.8423 15.0618 14.1975 14.8869 15.3779 14.5862L13.9354 13.8827C13.439 13.6406 13.2328 13.0419 13.4749 12.5455C13.717 12.0491 14.3156 11.843 14.812 12.0851L18.3769 13.8236C18.8733 14.0656 19.0795 14.6643 18.8374 15.1607L17.0989 18.7256C16.8568 19.222 16.2582 19.4282 15.7618 19.1861C15.2653 18.944 15.0592 18.3453 15.3013 17.8489L15.9581 16.502C14.5735 16.8633 13.0188 17.0618 11.3883 17.0618C10.4528 17.0618 9.54209 16.9964 8.674 16.8724C8.76986 17.1105 8.87151 17.3368 8.97829 17.5504C9.77093 19.1355 10.6808 19.7352 11.3883 19.7352C11.5709 19.7352 11.7568 19.6988 11.9472 19.6216C12.459 19.414 13.0421 19.6606 13.2497 20.1724C13.4573 20.6842 13.2106 21.2674 12.6989 21.4749C12.2855 21.6426 11.8451 21.7352 11.3883 21.7352C9.51517 21.7352 8.08837 20.2426 7.18946 18.4449C6.87899 17.8239 6.61131 17.1317 6.39252 16.3842C5.64503 16.1654 4.95275 15.8977 4.33184 15.5872C2.53415 14.6883 1.0415 13.2615 1.0415 11.3884C1.0415 9.5152 2.53415 8.0884 4.33184 7.18949C4.95275 6.87902 5.64503 6.61135 6.39252 6.39256C6.61131 5.64506 6.87898 4.95278 7.18946 4.33187ZM8.674 5.90434C9.54209 5.78033 10.4528 5.71495 11.3883 5.71495C12.3248 5.71495 13.2354 5.78042 14.1027 5.90433C13.8071 5.17005 13.4608 4.5585 13.0887 4.09089C12.4796 3.32542 11.8877 3.04153 11.3883 3.04153C10.6808 3.04153 9.77093 3.64118 8.97829 5.22634C8.87151 5.4399 8.76986 5.66624 8.674 5.90434ZM5.90431 8.67403C5.66621 8.76989 5.43987 8.87154 5.22631 8.97832C3.64115 9.77096 3.0415 10.6809 3.0415 11.3884C3.0415 12.0959 3.64115 13.0058 5.22631 13.7984C5.43987 13.9052 5.66621 14.0068 5.90431 14.1027C5.7803 13.2346 5.71492 12.3239 5.71492 11.3884C5.71492 10.4529 5.7803 9.54212 5.90431 8.67403Z" fill="white"/>
<path d="M7.18946 4.33187L7.63667 4.55548L7.63667 4.55548L7.18946 4.33187ZM14.6537 2.84553L15.0449 2.53419L15.0449 2.53419L14.6537 2.84553ZM16.3839 6.39251L15.904 6.53291C15.9519 6.69653 16.0798 6.82449 16.2435 6.87238L16.3839 6.39251ZM17.7211 6.86028L17.5301 7.32237L17.5301 7.32237L17.7211 6.86028ZM21.4747 10.0773L21.0115 10.2655L21.0115 10.2655L21.4747 10.0773ZM19.6218 10.83L19.1585 11.0182L19.1585 11.0182L19.6218 10.83ZM16.9571 8.70864L17.1481 8.24655L17.1481 8.24655L16.9571 8.70864ZM8.04272 8.04276L7.94219 7.55297C7.74626 7.59318 7.59315 7.74629 7.55294 7.94222L8.04272 8.04276ZM8.04272 14.734L7.55294 14.8345C7.59315 15.0304 7.74626 15.1835 7.94219 15.2238L8.04272 14.734ZM15.3779 14.5862L15.5014 15.0707C15.7046 15.0189 15.8539 14.8458 15.8753 14.6371C15.8967 14.4285 15.7856 14.2287 15.5971 14.1368L15.3779 14.5862ZM13.9354 13.8827L14.1545 13.4333L14.1545 13.4333L13.9354 13.8827ZM14.812 12.0851L14.5929 12.5345L14.5929 12.5345L14.812 12.0851ZM18.3769 13.8236L18.5961 13.3742L18.5961 13.3742L18.3769 13.8236ZM18.8374 15.1607L18.388 14.9415L18.388 14.9415L18.8374 15.1607ZM17.0989 18.7256L17.5483 18.9448L17.5483 18.9448L17.0989 18.7256ZM15.7618 19.1861L15.9809 18.7367L15.9809 18.7367L15.7618 19.1861ZM15.3013 17.8489L15.7507 18.0681L15.7507 18.0681L15.3013 17.8489ZM15.9581 16.502L16.4076 16.7211C16.4932 16.5456 16.4687 16.3363 16.345 16.1852C16.2212 16.0341 16.0209 15.9689 15.8319 16.0182L15.9581 16.502ZM8.674 16.8724L8.74471 16.3774C8.56778 16.3521 8.39081 16.4232 8.28053 16.5639C8.17025 16.7045 8.14343 16.8933 8.21017 17.0591L8.674 16.8724ZM8.97829 17.5504L8.53109 17.774L8.53109 17.774L8.97829 17.5504ZM11.9472 19.6216L11.7593 19.1582L11.7593 19.1582L11.9472 19.6216ZM13.2497 20.1724L12.7864 20.3603L12.7864 20.3603L13.2497 20.1724ZM12.6989 21.4749L12.5109 21.0116L12.5109 21.0116L12.6989 21.4749ZM7.18946 18.4449L6.74226 18.6685L6.74226 18.6685L7.18946 18.4449ZM6.39252 16.3842L6.87239 16.2437C6.82451 16.0801 6.69658 15.9522 6.53298 15.9043L6.39252 16.3842ZM4.33184 15.5872L4.10822 16.0344L4.10822 16.0344L4.33184 15.5872ZM4.33184 7.18949L4.10822 6.74229L4.10822 6.74229L4.33184 7.18949ZM6.39252 6.39256L6.53298 6.87242C6.69658 6.82454 6.82451 6.69661 6.87239 6.53301L6.39252 6.39256ZM8.674 5.90434L8.21017 5.71761C8.14343 5.88341 8.17025 6.07222 8.28053 6.21287C8.39081 6.35351 8.56778 6.4246 8.74471 6.39932L8.674 5.90434ZM14.1027 5.90433L14.032 6.3993C14.2089 6.42458 14.3858 6.3535 14.4961 6.21287C14.6064 6.07224 14.6332 5.88344 14.5665 5.71764L14.1027 5.90433ZM13.0887 4.09089L13.48 3.77955L13.48 3.77955L13.0887 4.09089ZM8.97829 5.22634L9.4255 5.44996L9.4255 5.44996L8.97829 5.22634ZM5.90431 8.67403L6.39929 8.74474C6.42456 8.56781 6.35348 8.39084 6.21283 8.28056C6.07219 8.17028 5.88337 8.14346 5.71758 8.21021L5.90431 8.67403ZM5.22631 8.97832L5.44993 9.42553L5.44993 9.42553L5.22631 8.97832ZM5.22631 13.7984L5.44993 13.3512L5.44993 13.3512L5.22631 13.7984ZM5.90431 14.1027L5.71758 14.5665C5.88338 14.6333 6.07219 14.6064 6.21283 14.4962C6.35348 14.3859 6.42456 14.2089 6.39929 14.032L5.90431 14.1027ZM11.3883 0.541534C9.22229 0.541534 7.66666 2.25957 6.74226 4.10825L7.63667 4.55548C8.51008 2.80879 9.80804 1.54153 11.3883 1.54153V0.541534ZM15.0449 2.53419C14.1609 1.42331 12.9206 0.541534 11.3883 0.541534V1.54153C12.5063 1.54153 13.4873 2.18287 14.2624 3.15687L15.0449 2.53419ZM16.8638 6.25212C16.4436 4.81591 15.834 3.52572 15.0449 2.53419L14.2624 3.15687C14.9496 4.02039 15.5093 5.18364 15.904 6.53291L16.8638 6.25212ZM16.2435 6.87238C16.6965 7.00499 17.1266 7.15561 17.5301 7.32237L17.9121 6.39819C17.4734 6.21689 17.0094 6.05461 16.5244 5.91265L16.2435 6.87238ZM17.5301 7.32237C19.1971 8.01134 20.5043 9.01699 21.0115 10.2655L21.9379 9.88915C21.2825 8.27569 19.6788 7.12839 17.9121 6.39819L17.5301 7.32237ZM21.0115 10.2655C21.1154 10.5213 20.9922 10.813 20.7364 10.9169L21.1128 11.8434C21.8803 11.5316 22.2497 10.6567 21.9379 9.88915L21.0115 10.2655ZM20.7364 10.9169C20.4806 11.0208 20.1889 10.8977 20.085 10.6419L19.1585 11.0182C19.4703 11.7857 20.3452 12.1552 21.1128 11.8434L20.7364 10.9169ZM20.085 10.6419C19.7259 9.75796 18.7148 8.89407 17.1481 8.24655L16.7662 9.17073C18.2314 9.7763 18.9473 10.4982 19.1585 11.0182L20.085 10.6419ZM17.1481 8.24655C15.6011 7.60718 13.5941 7.21495 11.3883 7.21495V8.21495C13.4837 8.21495 15.358 8.58874 16.7662 9.17073L17.1481 8.24655ZM11.3883 7.21495C10.1597 7.21495 8.99655 7.33654 7.94219 7.55297L8.14326 8.53254C9.12907 8.33019 10.2247 8.21495 11.3883 8.21495V7.21495ZM8.21492 11.3884C8.21492 10.2247 8.33016 9.1291 8.53251 8.14329L7.55294 7.94222C7.33651 8.99658 7.21492 10.1597 7.21492 11.3884H8.21492ZM8.53251 14.6334C8.33016 13.6476 8.21492 12.552 8.21492 11.3884H7.21492C7.21492 12.617 7.33651 13.7801 7.55294 14.8345L8.53251 14.6334ZM7.94219 15.2238C8.99655 15.4402 10.1597 15.5618 11.3883 15.5618V14.5618C10.2247 14.5618 9.12907 14.4465 8.14326 14.2442L7.94219 15.2238ZM11.3883 15.5618C12.8815 15.5618 14.2783 15.3823 15.5014 15.0707L15.2544 14.1016C14.1168 14.3915 12.8032 14.5618 11.3883 14.5618V15.5618ZM13.7162 14.3321L15.1587 15.0356L15.5971 14.1368L14.1545 13.4333L13.7162 14.3321ZM13.0255 12.3264C12.6624 13.071 12.9716 13.969 13.7162 14.3321L14.1545 13.4333C13.9063 13.3122 13.8033 13.0129 13.9243 12.7647L13.0255 12.3264ZM15.0312 11.6356C14.2866 11.2725 13.3886 11.5818 13.0255 12.3264L13.9243 12.7647C14.0453 12.5165 14.3447 12.4134 14.5929 12.5345L15.0312 11.6356ZM18.5961 13.3742L15.0312 11.6356L14.5929 12.5345L18.1578 14.273L18.5961 13.3742ZM19.2868 15.3799C19.6499 14.6353 19.3407 13.7373 18.5961 13.3742L18.1578 14.273C18.406 14.394 18.509 14.6933 18.388 14.9415L19.2868 15.3799ZM17.5483 18.9448L19.2868 15.3799L18.388 14.9415L16.6495 18.5064L17.5483 18.9448ZM15.5426 19.6355C16.2872 19.9986 17.1852 19.6894 17.5483 18.9448L16.6495 18.5064C16.5284 18.7546 16.2291 18.8577 15.9809 18.7367L15.5426 19.6355ZM14.8519 17.6298C14.4887 18.3744 14.798 19.2724 15.5426 19.6355L15.9809 18.7367C15.7327 18.6156 15.6296 18.3163 15.7507 18.0681L14.8519 17.6298ZM15.5087 16.2828L14.8519 17.6298L15.7507 18.0681L16.4076 16.7211L15.5087 16.2828ZM15.8319 16.0182C14.4913 16.368 12.9793 16.5618 11.3883 16.5618V17.5618C13.0584 17.5618 14.6557 17.3586 16.0844 16.9858L15.8319 16.0182ZM11.3883 16.5618C10.476 16.5618 9.58886 16.498 8.74471 16.3774L8.60328 17.3674C9.49531 17.4948 10.4297 17.5618 11.3883 17.5618V16.5618ZM9.4255 17.3268C9.32512 17.126 9.22896 16.912 9.13782 16.6857L8.21017 17.0591C8.31075 17.3089 8.41789 17.5476 8.53109 17.774L9.4255 17.3268ZM11.3883 19.2352C10.9698 19.2352 10.1898 18.8552 9.4255 17.3268L8.53109 17.774C9.35211 19.4159 10.3919 20.2352 11.3883 20.2352V19.2352ZM11.7593 19.1582C11.6246 19.2128 11.5024 19.2352 11.3883 19.2352V20.2352C11.6394 20.2352 11.8889 20.1848 12.1351 20.0849L11.7593 19.1582ZM13.713 19.9845C13.4017 19.2168 12.527 18.8469 11.7593 19.1582L12.1351 20.0849C12.391 19.9811 12.6826 20.1044 12.7864 20.3603L13.713 19.9845ZM12.8868 21.9383C13.6545 21.6269 14.0244 20.7522 13.713 19.9845L12.7864 20.3603C12.8901 20.6162 12.7668 20.9078 12.5109 21.0116L12.8868 21.9383ZM11.3883 22.2352C11.9137 22.2352 12.4177 22.1285 12.8868 21.9383L12.5109 21.0116C12.1533 21.1567 11.7765 21.2352 11.3883 21.2352V22.2352ZM6.74226 18.6685C7.66666 20.5172 9.22229 22.2352 11.3883 22.2352V21.2352C9.80804 21.2352 8.51008 19.9679 7.63667 18.2212L6.74226 18.6685ZM5.91266 16.5246C6.13882 17.2973 6.41692 18.0178 6.74226 18.6685L7.63667 18.2212C7.34105 17.63 7.08381 16.966 6.87239 16.2437L5.91266 16.5246ZM6.53298 15.9043C5.81068 15.6929 5.14665 15.4356 4.55545 15.14L4.10822 16.0344C4.75885 16.3598 5.47937 16.6379 6.25207 16.864L6.53298 15.9043ZM4.55545 15.14C2.80876 14.2666 1.5415 12.9687 1.5415 11.3884H0.541504C0.541504 13.5544 2.25954 15.11 4.10822 16.0344L4.55545 15.14ZM1.5415 11.3884C1.5415 9.80807 2.80876 8.51011 4.55545 7.6367L4.10822 6.74229C2.25954 7.66669 0.541504 9.22232 0.541504 11.3884H1.5415ZM4.55545 7.6367C5.14665 7.34108 5.81068 7.08384 6.53298 6.87242L6.25207 5.91269C5.47937 6.13885 4.75885 6.41695 4.10822 6.74229L4.55545 7.6367ZM6.74226 4.10825C6.41692 4.75888 6.13882 5.4794 5.91266 6.2521L6.87239 6.53301C7.08381 5.81071 7.34105 5.14668 7.63667 4.55548L6.74226 4.10825ZM8.74471 6.39932C9.58886 6.27872 10.476 6.21495 11.3883 6.21495V5.21495C10.4297 5.21495 9.49531 5.28194 8.60328 5.40937L8.74471 6.39932ZM11.3883 6.21495C12.3016 6.21495 13.1886 6.27881 14.032 6.3993L14.1734 5.40935C13.2822 5.28203 12.3479 5.21495 11.3883 5.21495V6.21495ZM12.6975 4.40223C13.0331 4.82395 13.357 5.39089 13.6388 6.09101L14.5665 5.71764C14.2572 4.94921 13.8886 4.29305 13.48 3.77955L12.6975 4.40223ZM11.3883 3.54153C11.6827 3.54153 12.1447 3.70753 12.6975 4.40223L13.48 3.77955C12.8145 2.94331 12.0927 2.54153 11.3883 2.54153V3.54153ZM9.4255 5.44996C10.1898 3.92157 10.9698 3.54153 11.3883 3.54153V2.54153C10.3919 2.54153 9.35211 3.36079 8.53109 5.00272L9.4255 5.44996ZM9.13782 6.09108C9.22896 5.86468 9.32512 5.6507 9.4255 5.44996L8.53109 5.00272C8.41789 5.2291 8.31075 5.4678 8.21017 5.71761L9.13782 6.09108ZM5.71758 8.21021C5.46777 8.31078 5.22907 8.41792 5.00269 8.53112L5.44993 9.42553C5.65067 9.32515 5.86465 9.229 6.09105 9.13785L5.71758 8.21021ZM5.00269 8.53112C3.36076 9.35214 2.5415 10.392 2.5415 11.3884H3.5415C3.5415 10.9698 3.92154 10.1898 5.44993 9.42553L5.00269 8.53112ZM2.5415 11.3884C2.5415 12.3848 3.36076 13.4246 5.00269 14.2456L5.44993 13.3512C3.92153 12.5869 3.5415 11.8069 3.5415 11.3884H2.5415ZM5.00269 14.2456C5.22907 14.3588 5.46777 14.4659 5.71758 14.5665L6.09104 13.6389C5.86465 13.5477 5.65067 13.4516 5.44993 13.3512L5.00269 14.2456ZM5.21492 11.3884C5.21492 12.347 5.2819 13.2814 5.40934 14.1734L6.39929 14.032C6.27869 13.1878 6.21492 12.3007 6.21492 11.3884H5.21492ZM5.40934 8.60332C5.2819 9.49534 5.21492 10.4297 5.21492 11.3884H6.21492C6.21492 10.476 6.27869 9.58889 6.39929 8.74474L5.40934 8.60332Z" fill="black"/>
</svg>
